<svg width="24" height="24" viewBox="0 0 24 24" fill="none" xmlns="http://www.w3.org/2000/svg">
<path d="M20.8428 17.1447C20.5101 17.9133 20.1163 18.6208 19.66 19.2713C19.0381 20.158 18.5288 20.7719 18.1364 21.1127C17.528 21.6722 16.8762 21.9587 16.1782 21.975C15.6771 21.975 15.0728 21.8324 14.3693 21.5432C13.6636 21.2553 13.015 21.1127 12.422 21.1127C11.8 21.1127 11.133 21.2553 10.4195 21.5432C9.70493 21.8324 9.12928 21.9832 8.68916 21.9981C8.01981 22.0266 7.35264 21.7319 6.68668 21.1127C6.26164 20.742 5.72999 20.1064 5.09309 19.2061C4.40976 18.2446 3.84796 17.1297 3.40784 15.8587C2.93648 14.4857 2.7002 13.1563 2.7002 11.8692C2.7002 10.3948 3.01878 9.12321 3.65689 8.0576C4.1584 7.20166 4.82557 6.52647 5.66059 6.03081C6.49562 5.53514 7.39786 5.28256 8.36949 5.2664C8.90114 5.2664 9.59833 5.43085 10.4647 5.75405C11.3287 6.07834 11.8834 6.24279 12.1266 6.24279C12.3085 6.24279 12.9247 6.0505 13.9694 5.66714C14.9573 5.31162 15.7911 5.16441 16.4742 5.2224C18.3251 5.37178 19.7157 6.10142 20.6405 7.41595C18.9851 8.41896 18.1662 9.82379 18.1825 11.626C18.1975 13.0297 18.7067 14.1979 19.7076 15.1254C20.1611 15.5558 20.6676 15.8885 21.2312 16.1248C21.109 16.4793 20.98 16.8188 20.8428 17.1447ZM16.5978 0.440125C16.5978 1.54038 16.1958 2.56768 15.3946 3.51854C14.4277 4.64892 13.2582 5.30211 11.99 5.19904C11.9738 5.06705 11.9645 4.92812 11.9645 4.78214C11.9645 3.7259 12.4243 2.59552 13.2408 1.67127C13.6485 1.20331 14.167 0.814209 14.7957 0.503814C15.4231 0.19805 16.0166 0.0289566 16.5747 0C16.591 0.147086 16.5978 0.294182 16.5978 0.440111V0.440125Z" fill="black"/>
</svg>
