<svg width="24" height="24" viewBox="0 0 24 24" fill="none" xmlns="http://www.w3.org/2000/svg">
<path d="M18.5001 20.25H14.5001C14.0901 20.25 13.7501 19.91 13.7501 19.5C13.7501 19.09 14.0901 18.75 14.5001 18.75H18.5001C18.9101 18.75 19.2501 19.09 19.2501 19.5C19.2501 19.91 18.9101 20.25 18.5001 20.25Z" fill="#292D32"/>
<path d="M16.5001 22.25C16.0901 22.25 15.7501 21.91 15.7501 21.5V17.5C15.7501 17.09 16.0901 16.75 16.5001 16.75C16.9101 16.75 17.2501 17.09 17.2501 17.5V21.5C17.2501 21.91 16.9101 22.25 16.5001 22.25Z" fill="#292D32"/>
<path d="M12.1602 11.62C12.1302 11.62 12.1102 11.62 12.0802 11.62C12.0302 11.61 11.9602 11.61 11.9002 11.62C9.00019 11.53 6.8102 9.25 6.8102 6.44C6.8002 5.06 7.34019 3.76 8.32019 2.78C9.30019 1.8 10.6002 1.25 11.9902 1.25C14.8502 1.25 17.1802 3.58 17.1802 6.44C17.1802 9.25 14.9902 11.52 12.1902 11.62C12.1802 11.62 12.1702 11.62 12.1602 11.62ZM11.9902 2.75C11.0002 2.75 10.0802 3.14 9.3802 3.83C8.6902 4.53 8.3102 5.45 8.3102 6.43C8.3102 8.43 9.87019 10.05 11.8602 10.11C11.9202 10.1 12.0502 10.1 12.1802 10.11C14.1502 10.02 15.6802 8.41 15.6802 6.43C15.6802 4.41 14.0202 2.75 11.9902 2.75Z" fill="#292D32"/>
<path d="M11.9902 22.56C9.95016 22.56 8.02016 22.03 6.56016 21.05C5.17016 20.12 4.41016 18.85 4.41016 17.48C4.41016 16.11 5.18016 14.85 6.56016 13.93C9.55016 11.93 14.4102 11.93 17.4002 13.93C17.7402 14.16 17.8402 14.63 17.6102 14.97C17.3802 15.32 16.9102 15.41 16.5702 15.18C14.0802 13.52 9.88016 13.52 7.39016 15.18C6.43016 15.82 5.91016 16.63 5.91016 17.48C5.91016 18.33 6.43016 19.16 7.39016 19.8C8.60016 20.61 10.2302 21.05 11.9802 21.05C12.3902 21.05 12.7302 21.39 12.7302 21.8C12.7302 22.21 12.4002 22.56 11.9902 22.56Z" fill="#292D32"/>
</svg>
