<svg width="24" height="24" viewBox="0 0 24 24" fill="none" xmlns="http://www.w3.org/2000/svg">
<path d="M22.2974 17.6797C18.5809 15.88 17.9885 13.1014 17.9622 12.8953C17.9303 12.6457 17.8941 12.4494 18.1694 12.1955C18.4349 11.9501 19.6129 11.2208 19.9397 10.9926C20.4799 10.6148 20.7179 10.2376 20.5425 9.77386C20.4198 9.45306 20.1212 9.33223 19.8067 9.33223C19.7074 9.33253 19.6085 9.34364 19.5117 9.36535C18.9181 9.49416 18.3417 9.79165 18.0082 9.872C17.9681 9.88234 17.9269 9.8879 17.8855 9.88856C17.7077 9.88856 17.6403 9.80943 17.6574 9.59537C17.6991 8.94642 17.7874 7.6798 17.685 6.49659C17.5446 4.8687 17.0197 4.06211 16.3973 3.34875C16.0962 3.00281 14.6982 1.5166 12.0001 1.5166C9.30207 1.5166 7.90583 3.00281 7.60659 3.34446C6.98236 4.05782 6.45808 4.8644 6.31889 6.4923C6.21649 7.6755 6.30846 8.94151 6.34648 9.59107C6.35875 9.79471 6.2962 9.88426 6.11837 9.88426C6.07699 9.88356 6.03583 9.878 5.99574 9.8677C5.66277 9.78735 5.08637 9.48987 4.4928 9.36106C4.39598 9.33934 4.29708 9.32824 4.19786 9.32793C3.88206 9.32793 3.58467 9.45061 3.46203 9.76956C3.28665 10.2333 3.52335 10.6105 4.06541 10.9883C4.39224 11.2165 5.57018 11.9452 5.83569 12.1912C6.1104 12.4451 6.07484 12.6414 6.04295 12.891C6.01658 13.1002 5.42363 15.8788 1.70768 17.6754C1.49 17.7809 1.11963 18.0041 1.77268 18.3648C2.79794 18.9315 3.48042 18.8708 4.01083 19.2125C4.46092 19.5026 4.19479 20.1282 4.52224 20.354C4.92449 20.6318 6.11347 20.3343 7.64951 20.8416C8.93722 21.2661 9.71965 22.4652 12.0032 22.4652C14.2867 22.4652 15.0918 21.2605 16.3568 20.8416C17.8898 20.3343 19.0813 20.6318 19.4841 20.354C19.8109 20.1282 19.5454 19.5026 19.9955 19.2125C20.5259 18.8708 21.2078 18.9315 22.2337 18.3648C22.8855 18.0084 22.5151 17.7852 22.2974 17.6797Z" fill="white"/>
</svg>
