<svg width="24" height="24" viewBox="0 0 24 24" fill="none" xmlns="http://www.w3.org/2000/svg">
<path d="M21.9798 11.41C21.6398 5.60995 16.3698 1.13996 10.2998 2.13996C6.1198 2.82996 2.7698 6.21994 2.1198 10.3999C1.7398 12.8199 2.23983 15.1099 3.32983 16.9999L2.43981 20.3099C2.23981 21.0599 2.92979 21.7399 3.66979 21.5299L6.9298 20.63C8.4098 21.5 10.1398 21.9999 11.9898 21.9999C17.6298 21.9999 22.3098 17.03 21.9798 11.41ZM16.8798 15.7199C16.7898 15.8999 16.6798 16.07 16.5398 16.23C16.2898 16.5 16.0198 16.7 15.7198 16.82C15.4198 16.95 15.0898 17.01 14.7398 17.01C14.2298 17.01 13.6798 16.89 13.1098 16.64C12.5298 16.39 11.9598 16.0599 11.3898 15.6499C10.8098 15.2299 10.2698 14.7599 9.74981 14.2499C9.22981 13.7299 8.76978 13.1799 8.34978 12.6099C7.93979 12.0399 7.6098 11.4699 7.3698 10.8999C7.1298 10.3299 7.00982 9.77996 7.00982 9.25996C7.00982 8.91996 7.06981 8.58996 7.18981 8.28996C7.30981 7.97996 7.49983 7.69996 7.76983 7.44996C8.08983 7.12996 8.43981 6.97996 8.80981 6.97996C8.94981 6.97996 9.08978 7.00995 9.21978 7.06995C9.34978 7.12995 9.46981 7.21995 9.55981 7.34995L10.7198 8.98994C10.8098 9.11994 10.8798 9.22994 10.9198 9.33994C10.9698 9.44994 10.9898 9.54994 10.9898 9.64994C10.9898 9.76994 10.9498 9.88996 10.8798 10.01C10.8098 10.13 10.7198 10.2499 10.5998 10.3699L10.2198 10.7699C10.1598 10.8299 10.1398 10.8899 10.1398 10.9699C10.1398 11.0099 10.1498 11.0499 10.1598 11.0899C10.1798 11.1299 10.1898 11.16 10.1998 11.1899C10.2898 11.36 10.4498 11.5699 10.6698 11.8299C10.8998 12.0899 11.1398 12.3599 11.3998 12.6199C11.6698 12.8899 11.9298 13.1299 12.1998 13.3599C12.4598 13.5799 12.6798 13.73 12.8498 13.82C12.8798 13.83 12.9098 13.8499 12.9398 13.8599C12.9798 13.8799 13.0198 13.88 13.0698 13.88C13.1598 13.88 13.2198 13.85 13.2798 13.79L13.6598 13.41C13.7898 13.28 13.9098 13.19 14.0198 13.13C14.1398 13.06 14.2498 13.0199 14.3798 13.0199C14.4798 13.0199 14.5798 13.0399 14.6898 13.0899C14.7998 13.1399 14.9198 13.2 15.0398 13.29L16.6998 14.4699C16.8298 14.5599 16.9198 14.67 16.9798 14.79C17.0298 14.92 17.0598 15.0399 17.0598 15.1799C16.9998 15.3499 16.9598 15.5399 16.8798 15.7199Z" fill="black"/>
</svg>
